<svg xmlns="http://www.w3.org/2000/svg" width="256" height="256"><path fill="#1976D2" fill-opacity=".016" fill-rule="evenodd" d="M0 128.004v128.004l128.25-.254 128.25-.254.254-127.75L257.008 0H0zm.485.496c0 70.4.119 99.053.265 63.672s.146-92.98 0-128S.485 58.1.485 128.5"/><path fill="#1976D2" fill-opacity=".167" fill-rule="evenodd" d="M109.011 0c-.037.275-.887 2.975-1.888 6l-1.82 5.5-6.652.296c-3.658.162-6.651.649-6.651 1.08s2.008 2.227 4.463 3.99 4.698 3.586 4.986 4.052-.371 3.449-1.465 6.629-1.81 5.961-1.59 6.18c.219.22 2.768-1.394 5.664-3.586l5.266-3.985 5.088 3.885c2.798 2.138 5.24 3.445 5.427 2.907.186-.539-.377-3.078-1.25-5.642-.874-2.564-1.588-5.145-1.587-5.734s2.251-2.605 5-4.479c2.749-1.873 4.998-3.786 4.998-4.25S123.886 12 120.079 12h-6.92l-.693-3.155C111.791 5.773 109.146-1 109.011 0M52.692 10.75c-.234.412-1.197 3.112-2.139 6L48.839 22H42.42c-3.531 0-6.419.337-6.418.75s2.243 2.278 4.983 4.145c5.41 3.687 5.52 4.237 2.382 11.977-.752 1.855-1.367 3.542-1.367 3.75 0 1.197 2.817-.051 6.934-3.074l4.702-3.451 5.682 4.03C62.443 42.344 65 43.743 65 43.236s-.898-3.533-1.995-6.723c-2.229-6.476-2.613-5.605 4.738-10.745 1.784-1.248 3.246-2.605 3.25-3.018S68.102 22 64.56 22h-6.441l-1.781-6c-1.671-5.63-2.639-7.023-3.646-5.25m109.903 5.197L160.897 22h-6.449c-3.546 0-6.445.337-6.441.75s1.466 1.77 3.25 3.018c7.351 5.14 6.967 4.268 4.736 10.753-1.099 3.194-1.816 5.989-1.594 6.212.223.222 2.699-1.244 5.503-3.258L165 35.812l5.098 3.663c2.804 2.014 5.28 3.48 5.503 3.258.222-.223-.495-3.018-1.594-6.212-2.231-6.485-2.615-5.613 4.736-10.753 1.784-1.248 3.246-2.605 3.25-3.018s-2.882-.75-6.413-.75h-6.419l-1.704-5.25c-.936-2.888-2.032-5.611-2.433-6.053-.402-.442-1.495 1.92-2.429 5.25M92.729 41.512c-39.39 6.622-71.292 32.863-85.346 70.202-10.307 27.384-8.015 61.556 5.85 87.226 5.765 10.673 10.268 16.628 19.734 26.093 13.619 13.619 24.646 20.488 42.977 26.77 10.365 3.552 10.891 3.625 29.056 4.015 25.04.537 35.357-1.479 53.086-10.374l6.587-3.304 3.413 3.377c1.878 1.857 6.088 4.976 9.355 6.93l5.941 3.553h59.537l2.616-2.75c1.439-1.513 3.929-5 5.533-7.75l2.917-5-.018-61.5c-.018-65.54-.062-66.149-4.833-66.831-4.513-.646-17.182 9.501-24.385 19.532l-3.064 4.265-2.73-3.733c-1.502-2.053-3.735-7.333-4.962-11.733C202.411 78.977 167.42 47.897 125 41.455c-11.385-1.729-21.757-1.711-32.271.057M100 47.178c-22.969 1.641-45.155 11.921-62.093 28.773-13.968 13.897-22.582 28.765-27.55 47.549-2.249 8.506-2.655 12.166-2.719 24.5-.081 15.589 1.061 22.486 5.988 36.178 9.958 27.671 32.525 50.238 60.196 60.196 13.692 4.927 20.589 6.069 36.178 5.988 12.334-.064 15.994-.47 24.5-2.719 12.789-3.383 26.5-9.813 26.5-12.43 0-1.034-.243-2.122-.539-2.419-.297-.296-4.071 1.265-8.387 3.471l-7.848 4.009-3.363-2.525c-1.85-1.389-5.838-3.755-8.863-5.257-3.025-1.503-5.667-2.883-5.871-3.066-.204-.184 1.954-2.942 4.796-6.13 6.322-7.094 10.667-15.994 13.444-27.546 1.292-5.372 2.601-8.75 3.39-8.75.707 0 4.833 1.784 9.17 3.964 6.738 3.388 7.974 3.731 8.501 2.357.762-1.985 1.394-1.473-7.006-5.682-8.162-4.09-19.649-8.007-28.658-9.774-9.796-1.92-32.713-1.664-42.766.479-17.732 3.779-35.287 12.134-48.129 22.906-3.77 3.163-7.228 5.75-7.684 5.75-1.097 0-9.003-13.817-12.278-21.456-5.087-11.869-6.41-19.624-6.403-37.544.007-18.413 1.42-25.479 7.904-39.511C24.115 100.469 30.013 91 31.303 91c.46 0 4.552 2.902 9.094 6.449 14.69 11.47 30.569 18.596 49.316 22.129 12.228 2.304 35.344 1.515 47.287-1.616 15.961-4.183 34.019-13.557 44.406-23.05l5.398-4.934 2.411 2.865c2.869 3.411 10.044 17.108 11.746 22.424.797 2.49 2.225 4.295 4.213 5.323 2.963 1.532 2.997 1.521 2.317-.768-4.477-15.079-14.477-31.776-25.831-43.129C159.7 54.732 132.399 44.865 100 47.178m-3.5 4.843c-8.9 1.342-16.014 3.346-15.898 4.479.206 2.035 14.136 8.272 21.358 9.562 5.776 1.032 8.766 1.057 14.414.118C123.877 64.932 138 58.641 138 56.546c0-3.299-28.8-6.439-41.5-4.525M64.23 62.474C54.519 67.688 46.625 73.633 39 81.478l-5.5 5.658 3 2.521c8.497 7.142 15.962 12.077 24.937 16.487 5.466 2.685 10.243 4.538 10.615 4.119.373-.42 1.215-3.593 1.871-7.052 2.322-12.242 9.843-26.735 16.652-32.092C91.909 70.07 93 68.942 93 68.611s-2.138-1.584-4.75-2.787-6.631-3.454-8.93-5.005-4.774-2.811-5.5-2.802-5.042 2.015-9.59 4.457M140 60.179c-1.375 1.161-5.334 3.449-8.797 5.083l-6.297 2.97 4.584 4.52c7.554 7.447 13.455 19.528 15.625 31.988 1.276 7.328.833 7.274 12.385 1.497 10.779-5.39 26.5-16.862 26.5-19.337 0-3.753-19.93-19.867-31.387-25.378-8.498-4.087-9.268-4.169-12.613-1.343m-49.25 32.51c-.963.252-1.75 1.148-1.75 1.991 0 .953.568 1.316 1.5.958 1.195-.458 1.5.332 1.5 3.893 0 3.306-.39 4.469-1.5 4.469-.825 0-1.5.675-1.5 1.5 0 1.111 1.167 1.5 4.5 1.5s4.5-.389 4.5-1.5c0-.825-.675-1.5-1.5-1.5-1.167 0-1.5-1.333-1.5-6 0-6.119-.2-6.369-4.25-5.311m9.166 2.033c-1.337 3.515.176 6.987 3.277 7.523 2.259.39 2.25.422-.443 1.552-3.047 1.278-3.54 2.686-1.25 3.565 3.771 1.447 6.5-2.002 6.5-8.214 0-5.773-.795-7.148-4.132-7.148-2.255 0-3.152.618-3.952 2.722m11.066-.688c-1.776 3.318-.819 11.013 1.564 12.588 1.742 1.15 2.375 1.121 4.25-.192 1.718-1.203 2.204-2.538 2.204-6.052 0-2.48-.466-5.38-1.035-6.444-1.376-2.571-5.586-2.511-6.983.1m10.553-1.09c-1.032 1.67.279 2.917 2.466 2.345 2.321-.606 2.764 1.48.499 2.349-.825.317-1.5 1.203-1.5 1.969s.675 1.393 1.5 1.393 1.5.724 1.5 1.608c0 1.206-.611 1.455-2.439.997-3.4-.854-4.127.978-1.16 2.922 1.883 1.234 2.937 1.363 4.464.545 2.268-1.213 3.615-4.486 2.554-6.204-.391-.632-.758-2.773-.815-4.759-.095-3.292-.381-3.636-3.26-3.915-1.736-.169-3.45.169-3.809.75M103 97c0 1.1.45 2 1 2s1-.9 1-2-.45-2-1-2-1 .9-1 2m10.458-.752c-.844 2.2-.167 6.768 1.042 7.033 1.37.3 1.897-6.284.606-7.575-.72-.72-1.227-.553-1.648.542M95 127c-2.387 4.679-1.719 5.063 2.231 1.279l2.841-2.722 2.374 2.972c3.07 3.841 4.149 2.743 1.847-1.88-1.395-2.801-2.399-3.605-4.523-3.624-2.188-.02-3.134.768-4.77 3.975m-67.292 9.09c-9.71 5.124-11.446 20.769-3.293 29.666 2.933 3.2 3.948 3.643 9.238 4.025 5.346.387 6.27.155 9.202-2.313 3.216-2.705 3.268-2.714 3.819-.605.308 1.175 1.294 2.138 2.193 2.139 1.414.002 1.59-1.209 1.311-9.046l-.322-9.048-6.178.296c-5.539.265-6.211.529-6.498 2.546s.102 2.25 3.75 2.25c3.433 0 4.07.32 4.07 2.045 0 3.572-4.393 6.955-9.031 6.955-9.915 0-14.675-14.417-7.511-22.746 1.956-2.275 3.182-2.754 7.042-2.754 3.858 0 5.086.48 7.039 2.75 2.509 2.918 7.461 3.837 7.461 1.385 0-2.307-4.159-6.803-7.636-8.256-4.595-1.92-10.185-1.649-14.656.711m147.254.16c-10.563 5.327-12.267 22.267-3.021 30.047 4.413 3.713 7.381 4.293 10.466 2.046 3.341-2.434 3.235-3.343-.391-3.343-1.885 0-4.188-1.075-6.25-2.918-3.055-2.729-3.266-3.339-3.266-9.427 0-5.049.47-7.138 2.097-9.317 2.751-3.685 8.259-5.055 12.272-3.053 2.899 1.446 2.947 1.425 3.375-1.495.354-2.414-.01-3.131-1.97-3.876-3.968-1.509-8.591-1.045-13.312 1.336M56 151.912V169l2.75.002 2.75.002-.335-6.502-.336-6.502h6.527c7.462 0 7.888.37 8.626 7.5.501 4.831.632 5.011 3.903 5.323 2.807.269 3.277.041 2.75-1.331-.349-.911-.635-3.644-.635-6.074 0-3.068-.604-5.022-1.977-6.395-1.97-1.97-1.968-1.987.5-4.455 3.299-3.299 3.327-8.467.066-12.262-2.332-2.714-2.777-2.817-13.5-3.144L56 134.823zM87 152v17h26v-2.5c0-2.491-.033-2.5-9.5-2.5H94v-10h8c7.867 0 8-.042 8-2.5s-.133-2.5-8-2.5h-8v-9h9c8.933 0 9-.019 9-2.5V135H87zm29 0v17h6v-14.167c0-7.791.262-13.904.583-13.584.476.477 7.417 26.087 7.417 27.368 0 .211 1.506.383 3.347.383h3.346l2.756-10.75c5.002-19.514 5.016-19.524 5.328-3.5l.278 14.25H151v-34h-4.96c-5.639 0-4.504-2.017-9.495 16.883-2.722 10.306-3.105 11.135-3.905 8.442-1.045-3.519-5.419-19.852-6.046-22.575-.585-2.547-.999-2.75-5.613-2.75H116zm40 0v17h6v-34h-6zm-94.598-10.605c-.294.767-.393 3.129-.219 5.25l.317 3.855 5 .259c6.21.323 9.898-1.434 10.304-4.906.486-4.153-2.102-5.853-8.907-5.853-4.175 0-6.12.418-6.495 1.395m125.521 43.528C185.161 186.685 184 188.9 184 190.5c0 3.964 4.981 8.5 9.334 8.5 2.667 0 4.097-.724 6.077-3.077 1.424-1.692 2.589-4.202 2.589-5.577 0-3.633-5.082-8.346-9-8.346-2.152 0-4.082.928-6.077 2.923m1.648 1.648c-3.268 3.269-.38 10.429 4.206 10.429 3.139 0 6.223-2.925 6.223-5.902 0-5.217-6.79-8.165-10.429-4.527m-127.714 4.722c-8.651 4.342-20.398 12.444-24.706 17.04l-2.349 2.506 6.358 6.358c8.049 8.049 17.439 14.761 27.004 19.304l7.487 3.555 6.753-4.528c3.714-2.49 7.28-4.535 7.924-4.543s1.827-.43 2.628-.936c1.171-.741.472-1.96-3.574-6.239-6.392-6.758-11.955-17.998-14.135-28.56-1.259-6.098-2.112-8.25-3.269-8.25-.862 0-5.416 1.932-10.121 4.293m129.552-2.917c-.847 2.208.28 3.335 1.808 1.807.902-.902.905-1.461.016-2.35-.89-.89-1.324-.761-1.824.543M89.208 200.75c.169 4.499.711 7.658 1.292 7.531.55-.12 1.147-1.409 1.327-2.864.198-1.592 1.093-2.845 2.25-3.147 2.541-.665 2.48-3.27-.077-3.27-3.018 0-2.399-1.821.741-2.184 1.654-.19 2.874-1.011 3.074-2.066.277-1.462-.428-1.75-4.284-1.75h-4.615zm10 0 .292 7.75 3.387-.162c4.321-.207 5.047-1.482 4.649-8.159-.35-5.868-1.384-7.139-5.828-7.164L98.916 193zm11-.08c.191 5.027.723 7.812 1.542 8.083.781.259 1.25-.542 1.25-2.134 0-1.625.815-2.978 2.25-3.734 2.691-1.417 3.714-2.804 3.735-5.064.023-2.583-2.808-4.821-6.098-4.821h-2.971zm10.468-.541c-1.757 7.321-1.038 11.284 1.267 6.978 1.279-2.391 4.057-2.847 4.057-.666 0 .793.489 1.743 1.087 2.113 2.316 1.431 2.662-1.336 1.008-8.054-1.353-5.495-2.15-7.063-3.706-7.293-1.693-.25-2.234.757-3.713 6.922m107.247-2.206c-3.265 3.265-3.63 5.809-1.44 10.043 2.499 4.834 11.824 5.289 15.016.732C245.231 203.369 240.65 195 234 195c-2.152 0-4.082.928-6.077 2.923M102 197.559c0 .857.457 1.276 1.016.931.559-.346.758-1.047.441-1.559-.857-1.387-1.457-1.129-1.457.628m11 .941c0 .825.45 1.5 1 1.5s1-.675 1-1.5-.45-1.5-1-1.5-1 .675-1 1.5m116.655 1.329c-2.225 2.459-2.087 5.739.345 8.171 3.938 3.938 10 1.358 10-4.257 0-5.25-6.806-7.825-10.345-3.914m1.345 2.754c0 1.766 2.153 1.459 2.771-.395.218-.654-.317-1.188-1.188-1.188-.87 0-1.583.713-1.583 1.583m-129 .917c0 .825.45 1.5 1 1.5s1-.675 1-1.5-.45-1.5-1-1.5-1 .675-1 1.5m-7.5 29.554c-6.11 2.151-14.495 6.869-14.498 8.157-.005 2.069 16.754 4.776 29.612 4.783 13.543.008 28.874-2.877 28.167-5.3-.191-.657-3.844-2.961-8.118-5.121-7.361-3.721-8.334-3.946-18.467-4.279-8.932-.293-11.685-.003-16.696 1.76"/><path fill="#1976D2" fill-opacity=".502" fill-rule="evenodd" d="M51.38 16.713 49.5 22.5l-6.331.3-6.332.3 4.332 3.078c2.382 1.693 4.674 3.385 5.092 3.761.419.376-.144 3.314-1.25 6.529S43 42.488 43 42.702s2.09-1.206 4.644-3.156S52.809 36 53.447 36s3.068 1.404 5.402 3.12 4.452 2.912 4.708 2.656c.255-.255-.215-2.391-1.046-4.746-2.215-6.278-1.952-7.228 2.917-10.53l4.423-3-6.008-.5-6.007-.5-1.894-5.392c-1.041-2.966-2.071-5.57-2.288-5.787-.217-.218-1.241 2.209-2.274 5.392M88.5 42.985C51.896 50.373 21.408 76.091 8.461 110.5c-11.244 29.886-9.512 58.904 5.235 87.702 5.669 11.069 11.964 19.343 21.912 28.8 11.973 11.38 24.807 19.092 40.42 24.285 12.196 4.056 19.942 4.982 37.472 4.481 13.711-.392 17.287-.847 24.995-3.179 11.133-3.369 25.51-10.01 25.49-11.774-.045-3.856-1.625-3.94-8.576-.457-16.449 8.242-30.315 11.099-50.352 10.375-11.793-.426-16.26-1.031-23.525-3.188-35.164-10.44-60.641-36.037-71.209-71.545-2.012-6.76-2.638-11.48-3.056-23.057-.759-20.986 2.17-34.237 11.542-52.221C32.595 74.27 57.44 55.389 87.746 48.333c9.503-2.213 32.921-2.49 41.254-.489 22.873 5.494 39.632 14.741 54.035 29.816 11.37 11.901 18.998 24.523 23.918 39.579 1.394 4.265 3.147 7.481 4.777 8.764 1.417 1.114 2.766 1.834 3 1.6.879-.879-4.072-16.419-7.752-24.33-12.29-26.42-36.292-47.867-63.516-56.754-17.278-5.64-37.944-6.969-54.962-3.534m3.146 10.546c-11.343 2.147-11.882 2.66-6.257 5.957 14.771 8.656 35.162 8.514 48.421-.338l4.309-2.877-6.809-1.738c-9.422-2.404-29.574-2.914-39.664-1.004m-24.794 8.357c-4.168 2.058-10.452 5.81-13.965 8.34-7.913 5.697-18.35 16.214-17.483 17.616C37.953 91.968 66.825 110 70.88 110c.505 0 1.677-3.487 2.603-7.75 2.193-10.096 8.225-22.493 13.95-28.67 2.509-2.706 4.45-5.013 4.314-5.127S89.475 67.239 87 66.009c-2.475-1.231-5.85-3.23-7.5-4.444s-3.466-2.479-4.035-2.812-4.445 1.078-8.613 3.135M139 61.606c-2.475 1.846-6.405 4.098-8.732 5.004l-4.233 1.648 4.95 5.416C138.169 81.535 146 98.994 146 107.151c0 3 1.721 2.995 8.38-.024C166.064 101.829 183 89.682 183 86.599c0-1.329-8.297-9.534-15-14.834-4.702-3.717-15.009-9.651-21-12.09-3.39-1.38-3.641-1.32-8 1.931M27.347 96.672C13.282 118.659 8.864 145.827 15.097 172c2.127 8.934 11.482 29.404 14.815 32.421 1.831 1.657 2.234 1.468 9.996-4.669 19.917-15.749 43.225-23.748 69.211-23.751 20.704-.002 37.475 4.335 57.046 14.755.366.195.975-.622 1.353-1.814.379-1.192 3.14-5.769 6.137-10.17s5.313-8.097 5.147-8.214-1.792-.806-3.613-1.532c-1.821-.725-4.521-2.906-6-4.845-2.41-3.16-2.689-4.37-2.689-11.676 0-7.021.341-8.65 2.462-11.744 3.002-4.381 7.709-6.766 13.322-6.747 7.327.023 8.716.774 8.716 4.71 0 2.956-.268 3.37-1.75 2.706-.963-.432-3.815-.968-6.339-1.193-4.157-.37-4.84-.11-7.25 2.754-2.272 2.7-2.661 4.094-2.661 9.53 0 7.744 2.363 11.206 8.294 12.151 3.206.51 4.48.111 8.224-2.577 6.524-4.686 14.762-8.165 20.807-8.789l5.331-.55 2.577-7.862 2.577-7.861-11.448-6.107c-6.297-3.359-12.11-5.853-12.917-5.543-1.265.485-1.255.15.069-2.41.917-1.774 2.333-2.973 3.512-2.973 1.086 0 1.974-.163 1.974-.362 0-1.288-6.497-15.742-8.986-19.992-5.7-9.731-4.917-9.53-12.676-3.268-17.696 14.282-36.499 22.049-59.988 24.779-28.293 3.289-62.369-7.161-82.834-25.4C34.581 93.141 31.909 91 31.577 91s-2.235 2.552-4.23 5.672m73.707-3.237c-.655.789-1.047 2.926-.872 4.75.245 2.557.833 3.388 2.568 3.635 2.789.396 2.944 2.186.25 2.89-2.562.67-2.602 2.29-.057 2.29 4.089 0 6.618-8.215 4.022-13.066-1.219-2.277-4.224-2.531-5.911-.499m10.503.788c-3.254 4.644-1.174 12.777 3.268 12.777 2.689 0 4.175-2.8 4.175-7.863 0-6.434-4.362-9.314-7.443-4.914m10.517-.812c-.737.888-.808 1.635-.192 2.016.539.333 1.267.141 1.618-.427.828-1.34 2.5-.298 2.5 1.559 0 .793-.675 1.441-1.5 1.441-2.035 0-1.885.859.494 2.84 1.395 1.161 1.718 2.092 1.076 3.096-.735 1.151-1.213 1.191-2.405.201-1.007-.836-1.696-.896-2.135-.186-1.688 2.731 4.12 4.381 6.276 1.783 1.182-1.424 1.086-10.564-.132-12.484-1.061-1.675-4.15-1.586-5.6.161M90 94c0 .55.45 1 1 1 1.727 0 1.205 8.707-.563 9.386-2.529.97-.602 2.614 3.063 2.614s5.592-1.644 3.063-2.614c-1.15-.442-1.563-2.025-1.563-5.993C95 93.307 94.858 93 92.5 93c-1.375 0-2.5.45-2.5 1m23.466 1.228c-.892 2.326-.118 9.272 1.034 9.272 1.364 0 1.883-8.517.597-9.803-.709-.709-1.219-.542-1.631.531m-10.91.682c-.799 1.292.474 4.189 1.549 3.525 1.191-.736 1.152-4.435-.046-4.435-.518 0-1.194.409-1.503.91m-7.457 30.647c-2.444 4.142-2.504 4.443-.887 4.443.667 0 2.201-1.238 3.408-2.75l2.195-2.75 2.165 2.75c1.191 1.512 2.821 2.75 3.622 2.75 1.139 0 .96-.872-.822-3.992-3.072-5.379-6.675-5.547-9.681-.451M26.99 136.25c-5.662 3.853-7.391 7.086-7.772 14.532-.282 5.501.075 7.533 1.969 11.218 4.278 8.323 14.873 11.289 21.862 6.122l2.742-2.028.534 2.04c.342 1.309 1.186 1.915 2.354 1.692 1.579-.303 1.859-1.577 2.109-9.587l.287-9.239H37v3c0 2.833.222 3 4 3 4.795 0 5.006 1.148.954 5.2-2.624 2.624-3.553 2.964-6.697 2.454-2.007-.325-4.799-1.741-6.203-3.146-2.245-2.244-2.554-3.388-2.554-9.45 0-5.923.342-7.261 2.424-9.477 3.396-3.615 10.176-3.655 13.488-.081 1.523 1.642 3.393 2.5 5.453 2.5 3.652 0 3.773-.442 1.249-4.58-3.889-6.378-15.629-8.591-22.124-4.17m28.236 15.916L55.5 169.5h6l.296-6.75.295-6.75 5.205.015c2.862.009 5.772.376 6.467.817s1.597 3.472 2.004 6.735l.741 5.933h6.925l-.302-4.909c-.362-5.895-1.612-9.474-3.92-11.228-1.614-1.226-1.614-1.301.004-1.331 3.947-.073 5.259-9.987 1.876-14.171-1.785-2.207-2.701-2.383-14.024-2.695l-12.115-.335zM87 152.5V170h26v-6H94v-10h17.133l-.317-2.75c-.313-2.725-.391-2.753-8.566-3.04l-8.25-.291V140h9c8.933 0 9-.019 9-2.5V135H87zm29-.052V170h6v-14.167c0-7.791.264-13.903.586-13.58.322.322 1.697 5.01 3.056 10.416C130.406 171.636 129.665 170 133.5 170s3.094 1.636 7.858-17.331c1.359-5.406 2.734-10.094 3.056-10.416s.586 5.789.586 13.58V170h6v-35.105l-5.221.303-5.221.302-1.214 4.5a2872 2872 0 0 0-3.401 12.795c-1.203 4.562-2.401 8.08-2.663 7.818-.263-.263-1.912-6.02-3.665-12.795l-3.188-12.318-5.214-.302-5.213-.303zm40 .052V170h6v-35h-6zM62 145v5h5.929c8.416 0 11.539-3.532 7.071-8-1.515-1.515-3.333-2-7.5-2H62zm187.592 13.534c-1.976 3.594-3.592 6.724-3.592 6.956s1.8 2.991 4 6.131l4 5.711v-12.666c0-6.966-.184-12.666-.408-12.666-.225 0-2.025 2.94-4 6.534m-61.035 28.689c-2.069 2.954-1.964 5.099.355 7.197 2.725 2.466 7.181 1.696 8.997-1.555 1.318-2.36 1.293-2.907-.242-5.25-2.213-3.379-6.878-3.58-9.11-.392m-126.744 4.166c-8.787 4.378-20.316 12.307-24.712 16.997l-2.398 2.559 6.552 6.425c3.604 3.534 9.272 8.271 12.595 10.528C59.464 231.71 73.013 239 74.486 239c.356 0 2.08-1.075 3.831-2.388 1.751-1.314 5.582-3.59 8.515-5.059l5.332-2.67-4.672-4.995c-5.615-6.003-11.566-18.331-14.065-29.138-.986-4.262-2.048-7.736-2.36-7.719s-4.476 1.979-9.254 4.358m84.75-3.106c-.192.669-.896 3.877-1.564 7.128-2.497 12.152-9.932 26.245-16.623 31.508l-2.472 1.945 4.514 1.997c2.484 1.098 6.595 3.428 9.136 5.176l4.621 3.179 7.661-3.858 7.661-3.858-.298-9c-.274-8.248 1.435-18.458 4.3-25.691.515-1.3-.446-2.254-4.165-4.136-9.008-4.557-12.39-5.719-12.771-4.39M189.5 188c-.837 1.354.292 3 2.059 3 .793 0 1.441-.9 1.441-2 0-2.07-2.413-2.76-3.5-1m-99.833 5.667c-.367.366-.667 3.741-.667 7.5 0 5.407.313 6.833 1.5 6.833q1.5 0 1.5-3c0-1.945.507-3 1.441-3 2.396 0 2.911-2.095.66-2.684-2.967-.776-2.661-3.316.399-3.316 1.556 0 2.5-.567 2.5-1.5 0-1.033-1.037-1.5-3.333-1.5-1.834 0-3.634.3-4 .667m10 0c-.367.366-.667 3.741-.667 7.5V208h2.929c3.56 0 6.477-2.606 5.462-4.879-.398-.892-.651-3.068-.561-4.838.115-2.266-.407-3.521-1.767-4.25-2.214-1.184-4.428-1.335-5.396-.366m11 0c-.367.366-.667 3.741-.667 7.5 0 5.407.313 6.833 1.5 6.833.906 0 1.5-.927 1.5-2.339 0-1.526.87-2.737 2.5-3.479 4.727-2.154 2.609-9.182-2.768-9.182-.769 0-1.699.3-2.065.667m11.828.583c-.244.688-.889 3.311-1.435 5.83s-1.281 5.331-1.633 6.25c-.422 1.1-.132 1.67.849 1.67.82 0 1.726-.9 2.014-2s1.187-2 2-2 1.712.9 2 2c.57 2.179 2.713 2.774 2.704.75-.003-.687-.409-2.825-.903-4.75a262 262 0 0 1-1.513-6.25c-.627-2.799-3.279-3.773-4.083-1.5M102 197.5c0 .825.45 1.5 1 1.5s1-.675 1-1.5-.45-1.5-1-1.5-1 .675-1 1.5m11 .5c0 1.1.45 2 1 2s1-.9 1-2-.45-2-1-2-1 .9-1 2m10.697 1.393c-.409 1.041-.508 2.129-.221 2.417.913.912 1.715-.583 1.333-2.482-.35-1.74-.404-1.737-1.112.065m106.364.546c-2.468 2.468-2.572 3.886-.504 6.838 2.232 3.188 6.897 2.987 9.11-.392 1.535-2.343 1.56-2.89.242-5.25-1.908-3.416-6.066-3.978-8.848-1.196M230.5 201c-.837 1.354.292 3 2.059 3 .793 0 1.441-.9 1.441-2 0-2.07-2.413-2.76-3.5-1M102 203.615c0 1.597.468 2.396 1.25 2.135 1.868-.622 2.072-3.412.299-4.093-1.149-.441-1.549.064-1.549 1.958m101-1.01c0 4.313 7.598 8.259 12.392 6.436 3.047-1.159 2.727-3.146-.377-2.335-3.131.819-6.74-.497-9.485-3.457-2.359-2.544-2.53-2.587-2.53-.644M98.634 232.586c-6.703 1.623-18.106 7.352-16.924 8.504.435.423 4.547 1.526 9.14 2.45 13.741 2.767 47.05.66 45.863-2.901-.647-1.94-10.356-6.398-17.448-8.01-8.512-1.937-12.77-1.945-20.631-.043"/><path fill="#1976D2" fill-opacity=".769" fill-rule="evenodd" d="M101 41.613c-28.696 3.372-50.599 13.804-68.703 32.725C17.379 89.929 7.312 109.268 4.104 128.5c-.642 3.85-1.653 9.27-2.246 12.044-1.104 5.161-.912 9.302 1.035 22.429 6.529 44.019 37.849 78.977 80.428 89.77 8.49 2.152 12.586 2.595 24.679 2.669 16.546.1 24.137-1.116 37.981-6.088 11.844-4.253 18.148-7.825 17.373-9.843-.711-1.854-2.295-1.84-4.785.043-2.509 1.898-18.256 7.901-26.569 10.128-10.156 2.721-35.818 2.498-46.786-.407-38.666-10.24-66.26-37.837-76.451-76.459C5.748 161.361 5.57 137.139 8.417 126c4.978-19.471 13.202-34.495 26.368-48.171C55.86 55.938 80.217 45.632 110.5 45.791c14.802.078 26.753 2.586 40.367 8.473 26.143 11.302 48.236 35.846 56.709 63 1.717 5.505 4.749 9.744 6.044 8.45.334-.334-.384-3.894-1.594-7.911C200.724 80.311 170.359 52.296 132 43.97c-8.665-1.88-24.685-3.098-31-2.357m82.5 52.625c-4.367 4.262-16.716 12.483-24.61 16.384-14.224 7.03-32.397 11.369-47.64 11.375-4.537.002-8.248.341-8.246.753s.902 2.223 2 4.024c2.452 4.022 2.458 4.226.118 4.226-1.033 0-2.559-1.012-3.391-2.25l-1.513-2.25-2.424 2.25c-1.332 1.238-3.15 2.25-4.038 2.25-1.354 0-1.208-.729.899-4.499 2.862-5.12 3.26-4.755-7.155-6.548-15.867-2.73-35.775-12.083-49.698-23.349l-6.116-4.949-2.26 2.835c-3.691 4.63-10.116 18.444-13.043 28.046-2.492 8.171-2.738 10.423-2.783 25.464-.051 17.141.665 21.682 5.522 35 2.17 5.951 8.006 17.076 10.863 20.708l1.774 2.256 4.371-3.843c5.054-4.445 16.143-11.742 23.37-15.378C73.191 179.854 93.861 175 109.509 175c15.246 0 35.078 4.7 48.72 11.547 3.785 1.899 7.194 3.452 7.576 3.451.382-.002 1.965-2.434 3.518-5.406s4.387-7.23 6.299-9.463l3.476-4.061-3.299-1.411c-9.943-4.252-13.855-18.458-7.818-28.385 3.62-5.953 11.584-9.054 18.981-7.392l3.963.891 1.52-5.228c1.691-5.818 4.916-10.543 7.195-10.543 1.083 0 1.309-.62.822-2.25-1.299-4.343-9.459-20.277-11.699-22.845L186.5 91.31zm-71.012-.853c-2.434 1.78-2.643 9.888-.316 12.216 3.492 3.492 7.453-1.752 6.234-8.251-.771-4.11-3.353-5.84-5.918-3.965m11.262-.696c-.963.252-1.75.905-1.75 1.452s.862.72 1.916.386c2.666-.847 3.811 1.468 1.546 3.125-1.792 1.309-1.791 1.387.009 2.703 2.821 2.063 1.283 5.051-2.155 4.188-2.367-.594-2.516-.489-1.328.942 2.985 3.598 8.708-.539 6.232-4.505-.901-1.442-.972-2.576-.245-3.934.765-1.429.628-2.3-.548-3.477-.864-.863-1.65-1.517-1.748-1.453s-.966.322-1.929.573M90.5 94c-.34.55.084 1 .941 1 2.174 0 2.228 8.806.059 9.638-2.522.968-1.671 2.362 1.441 2.362 3.274 0 4.868-1.476 2.553-2.364-1.076-.413-1.494-2.12-1.494-6.105C94 94.382 93.64 93 92.559 93c-.793 0-1.719.45-2.059 1m9.872 1.655c-.777 3.095.708 5.905 3.016 5.706 2.327-.2 1.988 2.728-.388 3.349-2.746.718-2.535 2.505.25 2.11 2.989-.425 5.312-7.211 3.816-11.147-1.425-3.748-5.755-3.759-6.694-.018m1.99-.155c-.716 1.864.226 4.5 1.607 4.5.567 0 1.031-1.35 1.031-3 0-3.14-1.649-4.078-2.638-1.5m10.346 1.25c-.737 3.737.244 8.25 1.792 8.25.697 0 1.507-1.237 1.8-2.75.722-3.721-.266-8.25-1.8-8.25-.687 0-1.494 1.237-1.792 2.75m-81.585 37.268c-4.855 1.124-8.288 3.959-10.946 9.041-2.943 5.626-2.605 14.895.741 20.308 4.268 6.907 16.807 9.906 21.951 5.251 2.228-2.016 3.131-2.05 3.131-.118q0 1.5 3 1.5h3v-19H35.867l.317 2.75c.274 2.388.81 2.791 4.066 3.06 4.247.352 4.73 1.761 1.711 5.001-2.413 2.591-8.403 2.968-11.597.732-1.144-.802-2.659-3.524-3.366-6.049C23.584 144.3 34.252 134.705 42 143c1.948 2.085 3.748 3 5.901 3 3.589 0 3.999-1.668 1.463-5.96-3.008-5.094-10.941-7.713-18.241-6.022M55 152.06v18.061l3.75-.311 3.75-.31.296-6.75.295-6.75h4.02c6.26 0 7.889 1.332 7.889 6.453 0 6.55.662 7.547 5.012 7.547h3.798l-.501-6.25c-.296-3.685-1.242-7.306-2.304-8.823-1.74-2.483-1.739-2.612.047-3.727 2.645-1.652 3.416-7.145 1.609-11.469-1.9-4.546-5.667-5.718-18.411-5.725L55 134zm32-.061v18.059l13.25-.279 13.25-.279v-6l-9.75-.286-9.75-.286V154h17v-6H94v-6.925l9.25-.287 9.25-.288v-6l-12.75-.28-12.75-.28zm28.463-16.763c-.283.737-.39 8.749-.239 17.802l.276 16.462 3.25.313 3.25.314v-13.23c0-7.277.247-12.983.55-12.681.302.303 2.007 6.115 3.788 12.917l3.238 12.367h7.924l3-12 3-12 .281 12.25.281 12.25H151v-36h-5.021c-5.9 0-5.509-.627-9.593 15.412-1.528 6.001-3.005 10.276-3.282 9.5-.277-.777-1.877-6.587-3.557-12.912l-3.053-11.5-5.258-.303c-3.698-.212-5.411.096-5.773 1.039m40.204-.569c-.367.366-.667 8.466-.667 18V170h8v-36h-3.333c-1.834 0-3.634.3-4 .667m21.693 6.793c-3.131 2.194-4.676 6.9-4.13 12.584.546 5.68 3.329 9.442 7.599 10.272 2.946.573 9.13-1.889 9.242-3.68.038-.625.022-4.736-.036-9.136-.091-6.789-.421-8.265-2.182-9.75-2.525-2.13-7.663-2.272-10.493-.29M63 145.5v4.5h4.566c5.697 0 8.434-1.407 8.434-4.335 0-3.496-1.93-4.665-7.7-4.665H63zm128 40.14c0 .352.787 1.224 1.75 1.939 1.608 1.193 1.62 1.431.143 2.931-1.487 1.51-1.731 1.51-3.25-.01-1.524-1.524-1.643-1.459-1.643.893 0 4.123 5.397 6.067 8.429 3.036 2.107-2.108 1.987-5.743-.258-7.774-1.789-1.619-5.171-2.283-5.171-1.015M90 200.5c0 3.667.436 6.5 1 6.5.55 0 1-1.317 1-2.927 0-1.946.586-3.08 1.75-3.384 1.667-.435 1.667-.463 0-.573-1.155-.077-1.75-.943-1.75-2.55 0-1.887.617-2.527 2.75-2.85 2.212-.335 2.016-.446-1-.566L90 194zm10 0v6.5h3.031c3.409 0 4.899-2.281 3.234-4.948-.693-1.11-.72-2.274-.079-3.42 1.28-2.287-.649-4.632-3.808-4.632-2.26 0-2.378.323-2.378 6.5m11 0c0 3.667.436 6.5 1 6.5.55 0 1-1.018 1-2.263 0-1.387.87-2.645 2.25-3.25 2.571-1.128 3.584-5.343 1.587-6.609-.735-.466-2.35-.854-3.587-.863-2.104-.014-2.25.406-2.25 6.485m11.139-2.75c-2.003 8.005-2.159 9.25-1.158 9.25.56 0 1.019-.675 1.019-1.5 0-2.073 3.682-1.89 4.875.242 1.778 3.176 1.942.84.385-5.492-1.761-7.16-3.716-8.114-5.121-2.5M102 197.5c0 1.689.458 2.514 1.25 2.25.688-.229 1.25-1.242 1.25-2.25s-.562-2.021-1.25-2.25c-.792-.264-1.25.561-1.25 2.25m11 .5c0 2.089.425 3.025 1.25 2.75.688-.229 1.25-1.467 1.25-2.75s-.562-2.521-1.25-2.75c-.825-.275-1.25.661-1.25 2.75m10.667-.333c-1.201 1.2-.699 4.333.694 4.333.913 0 1.204-.824.884-2.5-.522-2.729-.596-2.815-1.578-1.833M233 198.8c0 .44.543 1.343 1.207 2.007.943.943.865 1.55-.357 2.772-1.419 1.419-1.717 1.411-3.207-.079-1.524-1.524-1.643-1.498-1.643.357 0 2.355 2.514 5.143 4.637 5.143 5.03 0 7.282-5.953 3.534-9.345-1.928-1.745-4.171-2.205-4.171-.855m-131 4.617c0 1.68.549 2.583 1.57 2.583 1.042 0 1.462-.729 1.25-2.172-.472-3.201-2.82-3.544-2.82-.411m101-.506c0 .501 1.385 2.076 3.077 3.5 3.051 2.568 9.185 3.591 10.339 1.725.293-.475-1.338-.863-3.626-.863-3.253 0-4.652-.574-6.426-2.637-2.368-2.753-3.364-3.263-3.364-1.725"/></svg>